<svg xmlns="http://www.w3.org/2000/svg" width="21.658" height="21.658" viewBox="0 0 21.658 21.658">
  <g id="Group_79" data-name="Group 79" transform="translate(-1253.289 -1743.236)">
    <path id="Path_51" data-name="Path 51" d="M1265.819,1754.065h0l-1.7-1.7h0l-3.948-3.948-1.7,1.7,2.437,2.438a3.571,3.571,0,0,0-.092,3.114l-2.345,2.345,1.7,1.7,4.342-4.342Z"/>
    <rect id="Rectangle_77" data-name="Rectangle 77" width="2.406" height="4.38" transform="translate(1264.968 1756.617) rotate(-45)"/>
    <rect id="Rectangle_78" data-name="Rectangle 78" width="4.38" height="2.406" transform="matrix(0.707, -0.707, 0.707, 0.707, 1264.969, 1751.512)"/>
    <path id="Path_52" data-name="Path 52" d="M1264.118,1743.236a10.829,10.829,0,1,0,10.829,10.829A10.84,10.84,0,0,0,1264.118,1743.236Zm0,19.251a8.423,8.423,0,1,1,8.423-8.422A8.432,8.432,0,0,1,1264.118,1762.487Z"/>
  </g>
</svg>
